# AST/ASF file generated using VICON BodyLanguage
# -----------------------------------------------
:version 1.10
:name VICON
:units
  mass 1.0
  length 0.45
  angle deg
:documentation
   .ast/.asf automatically generated from VICON data using
   VICON BodyBuilder and BodyLanguage model FoxedUp or BRILLIANT.MOD
:root
   order TX TY TZ RX RY RZ
   axis XYZ
   position 0 0 0  
   orientation 0 0 0 
:bonedata
  begin
     id 1 
     name lhipjoint
     direction 0.578396 -0.714046 0.394458 
     length 2.21935 
     axis 0 0 0  XYZ
  end
  begin
     id 2 
     name lfemur
     direction 0.34202 -0.939693 0  
     length 6.39105  
     axis 0 0 20  XYZ
    dof rx ry rz
    limits (-160.0 20.0)
           (-70.0 70.0)
           (-60.0 70.0)
  end
  begin
     id 3 
     name ltibia
     direction 0.34202 -0.939693 0   
     length 6.99037   
     axis 0 0 20   XYZ
    dof rx
    limits (-10.0 170.0)
  end
  begin
     id 4 
     name lfoot
     direction 0.0582372 -0.160005 0.985397   
     length 2.06111   
     axis -90 7.62852e-016 20   XYZ
    dof rx rz
    limits (-45.0 90.0)
           (-70.0 20.0)
  end
  begin
     id 5 
     name ltoes
     direction 1.53556e-011 -4.21875e-011 1   
     length 1.04074   
     axis -90 7.62852e-016 20   XYZ
    dof rx
    limits (-90.0 20.0)
  end
  begin
     id 6 
     name rhipjoint
     direction -0.558179 -0.726269 0.40121   
     length 2.182  
     axis 0 0 0  XYZ 
  end
  begin
     id 7 
     name rfemur
     direction -0.34202 -0.939693 0   
     length 6.51172   
     axis 0 0 -20   XYZ
    dof rx ry rz
    limits (-160.0 20.0)
           (-70.0 70.0)
           (-70.0 60.0)
  end
  begin
     id 8 
     name rtibia
     direction -0.34202 -0.939693 0   
     length 7.02607   
     axis 0 0 -20   XYZ
    dof rx
    limits (-10.0 170.0)
 end
 begin
     id 9 
     name rfoot
     direction -0.0788856 -0.216737 0.973038   
     length 1.96734  
     axis -90 -7.62852e-016 -20   XYZ
    dof rx rz
    limits (-45.0 90.0)
           (-20.0 70.0)
  end
  begin
     id 10 
     name rtoes
     direction -1.53567e-011 -4.21783e-011 1   
     length 0.990825   
     axis -90 -7.62852e-016 -20   XYZ
    dof rx
    limits (-90.0 20.0)
  end
  begin
     id 11 
     name lowerback
     direction 0.00668177 0.999323 -0.0361741   
     length 1.7655   
     axis 0 0 0   XYZ
    dof rx ry rz
    limits (-20.0 45.0)
           (-30.0 30.0)
           (-30.0 30.0)
  end
  begin
     id 12 
     name upperback
     direction -0.00222086 0.99851 0.0545167   
     length 1.74912   
     axis 0 0 0   XYZ
    dof rx ry rz
    limits (-20.0 45.0)
           (-30.0 30.0)
           (-30.0 30.0)
  end
  begin
     id 13 
     name thorax
     direction -0.00733971 0.997496 0.0703443   
     length 1.75715   
     axis 0 0 0   XYZ
    dof rx ry rz
    limits (-20.0 45.0)
           (-30.0 30.0)
           (-30.0 30.0)
  end
  begin
     id 14 
     name lowerneck
     direction 0.0279797 0.994795 0.0979765   
     length 1.46939   
     axis 0 0 0   XYZ
    dof rx ry rz
    limits (-20.0 45.0)
           (-30.0 30.0)
           (-30.0 30.0)
  end
  begin
     id 15 
     name upperneck
     direction 0.00339187 0.976776 -0.214238   
     length 1.48018   
     axis 0 0 0   XYZ
    dof rx ry rz
    limits (-20.0 45.0)
           (-30.0 30.0)
           (-30.0 30.0)
  end
  begin
     id 16
     name head
     direction -0.00263506 0.996603 -0.0823096  
     length 1.4976  
     axis 0 0 0   XYZ
    dof rx ry rz
    limits (-20.0 45.0)
           (-30.0 30.0)
           (-30.0 30.0)
  end
  begin
     id 17 
     name lclavicle
     direction 0.894044 0.44508 -0.0508781  
     length 3.03024  
     axis 0 0 0   XYZ
    dof ry rz
    limits (-20.0 10.0)
           (0.0 20.0)
  end
  begin
     id 18 
     name lhumerus
     direction 1 -4.48961e-011 -2.39475e-018   
     length 4.4661   
     axis 180 -30 -90   XYZ
    dof rx ry rz
    limits (-60.0 90.0)
           (-90.0 90.0)
           (-90.0 90.0)
  end
  begin
     id 19
     name lradius
     direction 1 -4.48961e-011 9.29328e-028   
     length 3.41414   
     axis 180 -30 -90   XYZ
    dof rx
    limits (-10.0 170.0)
  end
  begin
     id 20
     name lwrist
     direction 1 -4.48985e-011 1.53461e-026   
     length 1.70707   
     axis -1.09697e-014 90 90   XYZ
    dof ry
    limits (-180.0 0.0)
 end
  begin
     id 21 
     name lhand
     direction 1 -4.48966e-011 3.06923e-026   
     length 0.328298   
     axis -1.95843e-014 90 90   XYZ
    dof rx rz
    limits (-90.0 90.0)
           (-45.0 45.0)
  end
  begin
     id 22 
     name lfingers
     direction 1 -4.48893e-011 6.13845e-026   
     length 0.264682   
     axis -3.91686e-014 90 90   XYZ
    dof rx
    limits (0.0 90.0)
  end
  begin
     id 23
     name lthumb
     direction 0.707107 -6.34876e-011 0.707107   
     length 0.380032   
     axis -90 45 2.85299e-015   XYZ
    dof rx rz
    limits (-45.0 45.0)
           (-45.0 45.0)
  end
  begin
     id 24 
     name rclavicle
     direction -0.936955 0.347862 -0.0332887   
     length 3.26927  
     axis 0 0 0   XYZ 
    dof ry rz
    limits (-10.0 20.0)
           (-20.0 0.0)
  end
  begin
     id 25 
     name rhumerus
     direction -1 -4.4896e-011 1.78637e-018  
     length 4.40431   
     axis 180 30 90   XYZ
    dof rx ry rz
    limits (-90.0 60.0)
           (-90.0 90.0)
           (-90.0 90.0)
  end
  begin
     id 26 
     name rradius
     direction -1 -4.48955e-011 9.34036e-027   
     length 3.04688   
     axis 180 30 90   XYZ
    dof rx
    limits (-10.0 170.0)
  end
  begin
     id 27 
     name rwrist
     direction -1 -4.49011e-011 1.53461e-026   
     length 1.52344   
     axis -1.09697e-014 -90 -90   XYZ
    dof ry
    limits (-180.0 0.0)
  end
  begin
     id 28
     name rhand
     direction -1 -4.48834e-011 3.06923e-026   
     length 0.500489   
     axis -1.95843e-014 -90 -90   XYZ
    dof rx rz
    limits (-90.0 90.0)
           (-45.0 45.0)
  end
  begin
     id 29
     name rfingers
     direction -1 -4.48967e-011 6.13845e-026   
     length 0.403507   
     axis -3.91686e-014 -90 -90   XYZ
    dof rx
    limits (0.0 90.0)
  end
  begin
     id 30
     name rthumb
     direction -0.707107 -6.34826e-011 0.707107   
     length 0.579358   
     axis -90 -45 -2.85299e-015   XYZ
    dof rx rz
    limits (-45.0 45.0)
           (-45.0 45.0)
  end
:hierarchy
  begin
    root lhipjoint rhipjoint lowerback
    lhipjoint lfemur
    lfemur ltibia
    ltibia lfoot
    lfoot ltoes
    rhipjoint rfemur
    rfemur rtibia
    rtibia rfoot
    rfoot rtoes
    lowerback upperback
    upperback thorax
    thorax lowerneck lclavicle rclavicle
    lowerneck upperneck
    upperneck head
    lclavicle lhumerus
    lhumerus lradius
    lradius lwrist
    lwrist lhand lthumb
    lhand lfingers
    rclavicle rhumerus
    rhumerus rradius
    rradius rwrist
    rwrist rhand rthumb
    rhand rfingers
  end

#!OML:ASF H:\IndianDance\Patient Classification 1\Patient 1\Session 1\dancer.ASF
:FULLY-SPECIFIED
:DEGREES
1375
root 14.5901 14.4431 0.626224 -174.016 -19.9237 177.917
lowerback 6.27297 4.18532 -3.80043
upperback -6.42362 3.44778 -9.30549
thorax -10.1425 1.13264 -8.47375
lowerneck -20.2343 1.90877 -5.22516
upperneck 26.0994 -2.56075 19.0699
head 12.3708 0.238702 7.82314
rclavicle 5.56597e-015 -3.49861e-014
rhumerus -9.66226 -30.2669 -48.7803
rradius 130.444
rwrist -99.8483
rhand -25.6066 -2.67538
rfingers 7.12502
rthumb 0.925683 -32.6531
lclavicle 5.56597e-015 -3.49861e-014
lhumerus -4.42599 -51.0164 22.6643
lradius 90.6581
lwrist -4.08143
lhand -63.1818 -68.5399
lfingers 7.12502
lthumb -35.1754 317.975
rfemur -30.2134 -22.4747 38.7258
rtibia 53.3704
rfoot -25.9123 -5.37825
rtoes 30.0073
lfemur -33.256 35.3038 -12.8246
ltibia 89.9901
lfoot 2.33794 -0.554548
ltoes 0.0321743
1376
root 14.6463 14.4724 0.591032 -173.972 -20.0012 177.944
lowerback 6.17796 4.14563 -3.73189
upperback -6.39479 3.41574 -9.31124
thorax -10.0511 1.11576 -8.50204
lowerneck -20.2239 1.93613 -5.00207
upperneck 26.1187 -2.53731 18.8671
head 12.3681 0.250689 7.70133
rclavicle -4.75095e-014 -7.31528e-014
rhumerus -9.20504 -31.321 -48.172
rradius 130.027
rwrist -100.308
rhand -26.416 -2.94958
rfingers 7.12502
rthumb 0.143938 -32.9293
lclavicle -4.75095e-014 -7.31528e-014
lhumerus -4.44636 -51.4341 22.8218
lradius 91.077
lwrist -3.75277
lhand -63.2576 -68.5011
lfingers 7.12502
lthumb -35.2472 317.997
rfemur -29.9215 -22.5977 38.9747
rtibia 52.7566
rfoot -25.3633 -5.07338
rtoes 30.3559
lfemur -32.7819 35.4611 -13.5503
ltibia 89.9654
lfoot 3.03288 -3.73742
ltoes -5.31044
1377
root 14.7013 14.5042 0.554878 -173.94 -20.0263 177.994
lowerback 6.05037 4.11575 -3.6407
upperback -6.38462 3.40927 -9.27769
thorax -9.95816 1.11376 -8.50113
lowerneck -20.0731 1.96343 -4.81719
upperneck 26.1068 -2.47181 18.604
head 12.3141 0.265626 7.55966
rclavicle -3.71727e-014 1.55847e-013
rhumerus -8.73116 -32.1653 -47.5216
rradius 129.573
rwrist -100.556
rhand -27.542 -3.01523
rfingers 7.12502
rthumb -0.943533 -32.9929
lclavicle -3.71727e-014 1.55847e-013
lhumerus -4.58162 -51.8909 23.1359
lradius 91.3798
lwrist -3.55153
lhand -63.4124 -68.541
lfingers 7.12502
lthumb -35.394 317.922
rfemur -29.6363 -22.717 39.2071
rtibia 52.2186
rfoot -24.8588 -4.48294
rtoes 31.5244
lfemur -32.2052 35.6605 -14.3621
ltibia 89.5443
lfoot 3.32145 -7.3728
ltoes -12.6909
1378
root 14.7608 14.5365 0.520809 -173.905 -20.1086 178.091
lowerback 5.97315 4.0034 -3.57862
upperback -6.3975 3.28573 -9.20138
thorax -9.93914 1.05701 -8.42701
lowerneck -19.9463 2.06232 -4.57498
upperneck 26.1567 -2.32457 18.3093
head 12.2767 0.320527 7.41308
rclavicle -7.2954e-014 2.22639e-014
rhumerus -8.09867 -32.9896 -47.0368
rradius 128.992
rwrist -101
rhand -28.3698 -3.3699
rfingers 7.12502
rthumb -1.74302 -33.3425
lclavicle -7.2954e-014 2.22639e-014
lhumerus -4.95818 -52.3446 23.5054
lradius 91.7189
lwrist -3.39994
lhand -63.4246 -68.5226
lfingers 7.12502
lthumb -35.4056 317.938
rfemur -29.347 -22.8218 39.5355
rtibia 51.5802
rfoot -24.1775 -4.28767
rtoes 31.0627
lfemur -31.6851 35.6372 -15.1316
ltibia 88.8412
lfoot 3.44661 -11.0327
ltoes -17.2918
1379
root 14.8267 14.5884 0.483742 -173.809 -20.209 178.14
lowerback 5.88671 3.96091 -3.56028
upperback -6.42668 3.24306 -9.15969
thorax -9.9252 1.03875 -8.3791
lowerneck -19.7614 2.08607 -4.39053
upperneck 26.1677 -2.2728 18.0512
head 12.2282 0.32699 7.27351
rclavicle 9.70069e-014 -2.57625e-013
rhumerus -7.69321 -33.8058 -46.2795
rradius 128.383
rwrist -101.009
rhand -29.2506 -3.67312
rfingers 7.12502
rthumb -2.59371 -33.6371
lclavicle 9.70069e-014 -2.57625e-013
lhumerus -5.04438 -52.8666 23.8054
lradius 91.9167
lwrist -3.22876
lhand -63.3717 -68.3469
lfingers 7.12502
lthumb -35.3554 318.125
rfemur -29.1814 -22.6803 39.635
rtibia 51.048
rfoot -23.593 -2.5571
rtoes 35.9355
lfemur -31.1005 35.5451 -15.9945
ltibia 87.6624
lfoot 3.90438 -14.2895
ltoes -18.7034
1380
root 14.8863 14.5969 0.456489 -173.659 -20.2557 178.201
lowerback 5.73298 3.88988 -3.55215
upperback -6.47095 3.16168 -9.11789
thorax -9.89303 1.0012 -8.31514
lowerneck -19.6439 2.16412 -4.16363
upperneck 26.2308 -2.17437 17.8108
head 12.2087 0.362939 7.14755
rclavicle 4.94974e-014 3.18055e-015
rhumerus -7.18032 -34.3107 -45.7553
rradius 127.778
rwrist -100.439
rhand -30.4209 -3.59153
rfingers 7.12502
rthumb -3.72394 -33.5387
lclavicle 4.94974e-014 3.18055e-015
lhumerus -5.17028 -53.3527 24.0196
lradius 92.1026
lwrist -3.14408
lhand -63.2699 -68.5778
lfingers 7.12502
lthumb -35.2589 317.917
rfemur -29.0047 -23.1867 40.2412
rtibia 50.3637
rfoot -22.5323 -3.76272
rtoes 29.1139
lfemur -30.8155 35.3832 -16.9942
ltibia 86.449
lfoot 4.36389 -17.3293
ltoes -19.05
1381
root 14.9512 14.6316 0.422836 -173.489 -20.2734 178.254
lowerback 5.57586 3.87843 -3.62263
upperback -6.4989 3.15247 -9.08687
thorax -9.83702 1.00452 -8.22654
lowerneck -19.8107 2.19428 -3.73888
upperneck 26.4837 -2.18433 17.3749
head 12.3388 0.363586 6.91662
rclavicle -2.14687e-014 0
rhumerus -6.80209 -35.0806 -44.9909
rradius 127.096
rwrist -100.354
rhand -31.3391 -3.51721
rfingers 7.12502
rthumb -4.61063 -33.447
lclavicle -2.14687e-014 0
lhumerus -4.92738 -53.8167 23.9943
lradius 92.1655
lwrist -2.99597
lhand -62.5341 -69.6751
lfingers 7.12502
lthumb -34.5608 316.982
rfemur -28.9339 -23.3505 40.5815
rtibia 49.8504
rfoot -21.6072 -3.37963
rtoes 27.9511
lfemur -30.3814 35.2195 -17.9901
ltibia 84.7579
lfoot 5.23386 -20.0523
ltoes -18.2769
1382
root 15.0164 14.6668 0.388352 -173.238 -20.257 178.22
lowerback 5.32874 3.84002 -3.75888
upperback -6.56269 3.09206 -9.07861
thorax -9.77689 0.981576 -8.11458
lowerneck -19.7341 2.28654 -3.42904
upperneck 26.6355 -2.10023 17.0904
head 12.3663 0.397202 6.76475
rclavicle -5.74488e-014 3.49861e-014
rhumerus -6.35599 -35.6765 -44.3806
rradius 126.387
rwrist -100.261
rhand -32.1687 -3.39453
rfingers 7.12502
rthumb -5.41162 -33.3054
lclavicle -5.74488e-014 3.49861e-014
lhumerus -5.01206 -54.4453 24.1601
lradius 92.4343
lwrist -3.26042
lhand -61.4677 -71.3606
lfingers 7.12502
lthumb -33.548 315.522
rfemur -28.9325 -23.5238 40.8183
rtibia 49.367
rfoot -20.6526 -2.59985
rtoes 28.1291
lfemur -29.9599 35.0787 -19.1179
ltibia 82.7991
lfoot 6.17815 -22.4846
ltoes -17.2948
1383
root 15.0868 14.7031 0.356145 -172.954 -20.2897 178.283
lowerback 5.08711 3.77108 -3.86911
upperback -6.65691 3.0008 -9.01631
thorax -9.75724 0.945507 -7.95683
lowerneck -19.6872 2.36101 -3.14768
upperneck 26.8032 -2.03507 16.8091
head 12.4098 0.421135 6.61922
rclavicle -5.92378e-014 1.59028e-014
rhumerus -5.91832 -36.2386 -43.6842
rradius 125.635
rwrist -100.245
rhand -32.9168 -3.33633
rfingers 7.12502
rthumb -6.13386 -33.2275
lclavicle -5.92378e-014 1.59028e-014
lhumerus -5.05572 -55.1269 24.3302
lradius 92.8028
lwrist -3.47262
lhand -62.3118 -71.8489
lfingers 7.12502
lthumb -34.3498 314.857
rfemur -29.1308 -23.6986 41.2026
rtibia 49.0721
rfoot -19.702 -1.70636
rtoes 28.6058
lfemur -29.6626 34.8147 -20.1625
ltibia 80.5787
lfoot 7.49707 -24.0699
ltoes -13.416
